<svg xmlns="http://www.w3.org/2000/svg" width="134.52" height="28.515" viewBox="0 0 134.52 28.515">
    <g id="그룹_60" data-name="그룹 60" transform="translate(-79.555 -390.231)">
        <path id="패스_19" data-name="패스 19" d="M1.02,26.883C.323,26.74-.025,26.55,0,25.936c.074-1.36.23-2.809.458-4.282C1.7,13.448,5.34,4.311,13.218,2.138a2.5,2.5,0,0,1,.873-.1,1.462,1.462,0,0,1,.7.349c6.05,4.537,7.494,12.918,6.062,22.157-.2,1.305-.482,2.667-.795,4.024a1.145,1.145,0,0,1-1.387.985c-1.053-.06-2.264-.213-3.435-.395-1.474-.228-2.9-.518-3.829-.73-.463-.106-.734-.354-.662-.822a34.876,34.876,0,0,0,1.2-4.235c.14-.9-.2-1.334-.908-1.443A1.79,1.79,0,0,0,8.7,23.581c-.249,1.607-.206,2.882-.347,3.785-.052.335-.217.515-.724.471-.948-.078-2.258-.247-3.664-.465-1.037-.161-1.976-.306-2.941-.49m10.542-10.3c.312-.02.634-.108.95-.161a.808.808,0,0,0,.632-.759,13.918,13.918,0,0,0-.206-4.419c-.064-.25-.149-.366-.283-.387-.167-.026-.316.054-.487.267A11.082,11.082,0,0,0,10,16.277c-.047.3.077.388.244.415a5.565,5.565,0,0,0,1.319-.1" transform="translate(79.555 389.193)" fill="#e8e8e8" />
        <path id="패스_20" data-name="패스 20" d="M50.429,0a.664.664,0,0,1,.658.605c.125.7-.715,3.327-.322,5.528.095.534.337.731.7.666.6-.107,1.767-1.863,4.3-2.315,3.168-.564,5.589,1.241,6.86,8.377a77.26,77.26,0,0,1,1.219,11.859.915.915,0,0,1-.713,1.022c-.5.089-1.428.289-2.495.479-1.234.22-2.607.43-3.62.541a.752.752,0,0,1-.949-.691c-.143-.8-.24-5.979-.947-9.947-.576-3.234-.971-3.715-1.705-3.584-.933.166-1.155,1.238-.579,4.473,1.058,5.936,1.782,8.456,1.936,9.323.125.7-.391.9-.785,1-.756.2-1.817.427-2.95.628-1.1.2-2.24.365-3.186.464a.787.787,0,0,1-.88-.5,50.182,50.182,0,0,1-1.6-7.043A138.22,138.22,0,0,1,43.31,2.335a1.147,1.147,0,0,1,.65-1.182C44.975.868,46.2.615,47.4.4A21.045,21.045,0,0,1,50.429,0" transform="translate(57.33 390.231)" fill="#e8e8e8" />
        <path id="패스_21" data-name="패스 21" d="M88.49,31.051c0-5.613,2.845-11.2,8.28-11.2,4.089,0,5.969,2.693,5.969,5.384a2.945,2.945,0,0,1-.635,1.981c-.94,1.245-3.4,3.074-4.572,3.074-.3,0-.406-.229-.406-.635,0-.457.051-1.117.051-1.727,0-1.245-.228-2.337-.914-2.337-.737,0-1.092,1.143-1.092,3.759,0,3.251.864,3.784,2.108,3.784,1.473,0,2.667-1.016,3.861-2.21a.571.571,0,0,1,.432-.2c.66,0,1.245,1.549,1.245,3.48,0,3-2.133,5.842-6.5,5.842-4.927,0-7.823-2.971-7.823-8.991" transform="translate(34.349 377.389)" fill="#e8e8e8" />
        <path id="패스_22" data-name="패스 22" d="M122.006,18.26a.5.5,0,0,1,.407.533c0,.534-.965,2.362-.965,4.039,0,.406.152.584.432.584.457,0,1.55-1.143,3.48-1.143,2.413,0,3.962,1.651,3.962,7.086a57.921,57.921,0,0,1-.66,8.915.685.685,0,0,1-.66.66c-.381,0-1.092.026-1.9.026-.94,0-1.981-.026-2.743-.076-.279-.026-.61-.1-.61-.635,0-.609.61-4.445.61-7.467,0-2.464-.229-2.87-.788-2.87-.711,0-1.016.762-1.016,3.226,0,4.521.2,6.477.2,7.137,0,.533-.407.61-.711.635-.584.051-1.4.076-2.26.076-.838,0-1.7-.026-2.413-.076a.591.591,0,0,1-.584-.483,37.732,37.732,0,0,1-.254-5.409,103.631,103.631,0,0,1,.915-13.97.86.86,0,0,1,.635-.788c.787-.076,1.727-.1,2.641-.1a15.736,15.736,0,0,1,2.286.1" transform="translate(22.328 378.142)" fill="#e8e8e8" />
        <path id="패스_23" data-name="패스 23" d="M142.288,39.58c-.534-.026-.813-.127-.864-.584-.1-1.016-.152-2.108-.152-3.226-.026-6.223,1.625-13.411,7.213-15.926a1.881,1.881,0,0,1,.635-.178,1.1,1.1,0,0,1,.559.178c5,2.667,7.036,8.712,7.036,15.722,0,.991-.051,2.032-.127,3.074a.858.858,0,0,1-.914.889c-.788.077-1.7.1-2.591.1-1.117,0-2.21-.051-2.921-.1-.355-.026-.584-.178-.584-.533a26.1,26.1,0,0,0,.407-3.277c0-.685-.3-.965-.839-.965-.864,0-1.549.33-1.549,1.5,0,1.219.178,2.159.178,2.845,0,.254-.1.406-.483.432-.711.051-1.7.077-2.769.077-.787,0-1.5,0-2.235-.026m6.629-8.839c.228-.051.457-.153.686-.229a.606.606,0,0,0,.381-.635,10.439,10.439,0,0,0-.66-3.251c-.077-.178-.153-.254-.254-.254-.127,0-.228.076-.33.254a8.306,8.306,0,0,0-1.016,4.064c0,.229.1.279.228.279a4.149,4.149,0,0,0,.965-.228" transform="translate(10.882 377.471)" fill="#e8e8e8" />
        <path id="패스_24" data-name="패스 24" d="M172.177,31.051c0-5.613,2.845-11.2,8.28-11.2,4.089,0,5.969,2.693,5.969,5.384a2.945,2.945,0,0,1-.635,1.981c-.94,1.245-3.4,3.074-4.572,3.074-.3,0-.406-.229-.406-.635,0-.457.051-1.117.051-1.727,0-1.245-.228-2.337-.914-2.337-.737,0-1.092,1.143-1.092,3.759,0,3.251.864,3.784,2.108,3.784,1.473,0,2.667-1.016,3.861-2.21a.571.571,0,0,1,.432-.2c.66,0,1.245,1.549,1.245,3.48,0,3-2.133,5.842-6.5,5.842-4.927,0-7.823-2.971-7.823-8.991" transform="translate(-2.859 377.389)" fill="#e8e8e8" />
        <path id="패스_25" data-name="패스 25" d="M205.693,18.26a.5.5,0,0,1,.407.533c0,.534-.965,2.362-.965,4.039,0,.406.152.584.432.584.457,0,1.55-1.143,3.48-1.143,2.413,0,3.962,1.651,3.962,7.086a57.922,57.922,0,0,1-.66,8.915.685.685,0,0,1-.66.66c-.381,0-1.092.026-1.9.026-.94,0-1.981-.026-2.743-.076-.279-.026-.61-.1-.61-.635,0-.609.61-4.445.61-7.467,0-2.464-.229-2.87-.788-2.87-.711,0-1.016.762-1.016,3.226,0,4.521.2,6.477.2,7.137,0,.533-.407.61-.711.635-.584.051-1.4.076-2.26.076-.838,0-1.7-.026-2.413-.076a.591.591,0,0,1-.584-.483,37.73,37.73,0,0,1-.254-5.409,103.541,103.541,0,0,1,.915-13.97.86.86,0,0,1,.635-.788c.787-.076,1.727-.1,2.641-.1a15.736,15.736,0,0,1,2.286.1" transform="translate(-14.881 378.142)" fill="#e8e8e8" />
        <path id="패스_26" data-name="패스 26" d="M225.975,39.58c-.534-.026-.813-.127-.864-.584-.1-1.016-.152-2.108-.152-3.226-.026-6.223,1.625-13.411,7.213-15.926a1.876,1.876,0,0,1,.635-.178,1.1,1.1,0,0,1,.559.178c5,2.667,7.036,8.712,7.036,15.722,0,.991-.051,2.032-.127,3.074a.858.858,0,0,1-.914.889c-.788.077-1.7.1-2.591.1-1.117,0-2.21-.051-2.921-.1-.355-.026-.584-.178-.584-.533a26.093,26.093,0,0,0,.407-3.277c0-.685-.3-.965-.839-.965-.864,0-1.549.33-1.549,1.5,0,1.219.178,2.159.178,2.845,0,.254-.1.406-.483.432-.711.051-1.7.077-2.769.077-.787,0-1.5,0-2.235-.026m6.629-8.839c.228-.051.457-.153.686-.229a.606.606,0,0,0,.381-.635,10.438,10.438,0,0,0-.66-3.251c-.077-.178-.153-.254-.254-.254-.127,0-.228.076-.33.254a8.306,8.306,0,0,0-1.016,4.064c0,.229.1.279.228.279a4.149,4.149,0,0,0,.965-.228" transform="translate(-26.326 377.471)" fill="#e8e8e8" />
    </g>
</svg>
  