<svg xmlns="http://www.w3.org/2000/svg" width="453.531" height="831.41" viewBox="0 0 453.531 831.41">
    <rect id="사각형_1300" data-name="사각형 1300" width="411.43" height="812.86" transform="translate(42.101)" fill="#2cff81" />
    <path id="패스_355" data-name="패스 355" d="M25,5.333c1.666,7.027,6.241,20.749,11.483,38.029,0,0-22.91,6.407-36.057,9.611a.505.505,0,0,0-.144.948c5.169,2.6,21.309,11.244,35.606,19,0,0-8.523,20.645-14.513,34.923a.5.5,0,0,0,.73.64c4.386-2.937,17.722-11.851,31.834-21.121,0,0,8.722,11.448,15.751,19.08a.505.505,0,0,0,.868-.274L78.2,79.849s18-.838,32.054-2.121a.5.5,0,0,0,.166-.935c-4.12-2.312-16.706-13.181-20.7-15.845,0,0,13.885-12.007,20.3-17.916a.5.5,0,0,0-.4-.872l-25.157,2.52s14.817-21.795,20.635-31.007a.5.5,0,0,0-.691-.675L71.933,31.862S72.008,9.269,71.479.491a.5.5,0,0,0-.94-.237c-2.646,4.583-11.8,22.718-16.007,30.636,0,0-18.344-14.149-28.656-25.967a.5.5,0,0,0-.879.41" transform="matrix(0.995, -0.105, 0.105, 0.995, 279.087, 180.794)" fill="#8dffbb" />
    <g id="그룹_94" data-name="그룹 94" transform="translate(54.546 -161.231)">
        <path id="패스_19" data-name="패스 19" d="M1.56,40.037C.494,39.818-.038,39.527,0,38.589c.113-2.079.352-4.3.7-6.548C2.594,19.493,8.166,5.522,20.212,2.2a3.821,3.821,0,0,1,1.335-.16,2.236,2.236,0,0,1,1.071.533c9.251,6.937,11.459,19.754,9.27,33.881-.31,2-.737,4.079-1.216,6.153a1.752,1.752,0,0,1-2.121,1.506c-1.61-.092-3.462-.326-5.252-.6-2.253-.349-4.438-.792-5.855-1.117-.709-.162-1.123-.541-1.012-1.257.159-1.024,1.35-3.3,1.842-6.476.214-1.382-.313-2.04-1.388-2.206-1.74-.269-3.225.182-3.59,2.536-.381,2.457-.316,4.406-.53,5.788-.079.512-.331.788-1.107.72-1.449-.12-3.453-.377-5.6-.711-1.586-.246-3.021-.467-4.5-.749M17.68,24.294c.476-.031.969-.165,1.453-.246a1.236,1.236,0,0,0,.966-1.161,21.283,21.283,0,0,0-.316-6.758c-.1-.382-.229-.56-.433-.591-.255-.039-.484.082-.744.409a16.946,16.946,0,0,0-3.316,7.873c-.071.461.118.594.373.634a8.509,8.509,0,0,0,2.017-.159" transform="translate(79.555 389.714)" fill="#fff" />
        <path id="패스_20" data-name="패스 20" d="M54.2,0A1.016,1.016,0,0,1,55.2.925C55.394,2,54.11,6.013,54.71,9.379c.145.816.515,1.118,1.076,1.018.918-.164,2.7-2.849,6.577-3.54,4.844-.863,8.546,1.9,10.49,12.81A118.142,118.142,0,0,1,74.716,37.8a1.4,1.4,0,0,1-1.09,1.563c-.765.136-2.183.441-3.815.733-1.887.336-3.987.657-5.535.828a1.15,1.15,0,0,1-1.451-1.056c-.218-1.224-.366-9.142-1.448-15.211-.881-4.946-1.485-5.681-2.608-5.48-1.427.255-1.767,1.893-.885,6.84,1.618,9.077,2.725,12.931,2.961,14.256.191,1.071-.6,1.37-1.2,1.53-1.155.31-2.778.653-4.511.961-1.683.3-3.426.558-4.872.71a1.2,1.2,0,0,1-1.345-.76,76.737,76.737,0,0,1-2.445-10.77A211.358,211.358,0,0,1,43.31,3.571,1.754,1.754,0,0,1,44.3,1.763c1.553-.435,3.43-.822,5.266-1.149A32.18,32.18,0,0,1,54.2,0" transform="translate(68.486 390.231)" fill="#fff" />
        <path id="패스_21" data-name="패스 21" d="M88.49,36.978c0-8.584,4.35-17.128,12.661-17.128,6.253,0,9.128,4.117,9.128,8.234a4.5,4.5,0,0,1-.972,3.029c-1.437,1.9-5.2,4.7-6.991,4.7-.465,0-.621-.35-.621-.971,0-.7.077-1.709.077-2.641,0-1.9-.349-3.573-1.4-3.573-1.127,0-1.671,1.748-1.671,5.748,0,4.972,1.321,5.787,3.224,5.787,2.252,0,4.078-1.553,5.9-3.379a.873.873,0,0,1,.66-.31c1.01,0,1.9,2.369,1.9,5.321,0,4.583-3.262,8.933-9.943,8.933-7.534,0-11.962-4.544-11.962-13.749" transform="translate(57.252 381.098)" fill="#fff" />
        <path id="패스_22" data-name="패스 22" d="M125.433,18.313a.762.762,0,0,1,.622.815c0,.816-1.476,3.612-1.476,6.176,0,.621.233.893.66.893.7,0,2.369-1.748,5.321-1.748,3.689,0,6.059,2.524,6.059,10.836a88.566,88.566,0,0,1-1.01,13.632,1.048,1.048,0,0,1-1.01,1.01c-.583,0-1.67.039-2.913.039-1.437,0-3.029-.039-4.194-.116-.427-.039-.933-.155-.933-.972,0-.932.933-6.8.933-11.418,0-3.767-.35-4.389-1.2-4.389-1.088,0-1.553,1.165-1.553,4.933,0,6.914.311,9.9.311,10.914,0,.815-.622.932-1.088.972-.893.077-2.136.116-3.456.116-1.282,0-2.6-.039-3.69-.116a.9.9,0,0,1-.893-.739,57.7,57.7,0,0,1-.388-8.272,158.468,158.468,0,0,1,1.4-21.362,1.316,1.316,0,0,1,.971-1.2c1.2-.116,2.641-.155,4.039-.155a24.063,24.063,0,0,1,3.5.155" transform="translate(53.177 381.353)" fill="#fff" />
        <path id="패스_23" data-name="패스 23" d="M142.825,50.117c-.816-.039-1.243-.194-1.321-.893-.155-1.553-.233-3.224-.233-4.933-.039-9.516,2.485-20.507,11.029-24.353a2.877,2.877,0,0,1,.972-.272,1.674,1.674,0,0,1,.854.272c7.651,4.078,10.758,13.322,10.758,24.042,0,1.515-.077,3.107-.194,4.7a1.312,1.312,0,0,1-1.4,1.359c-1.2.117-2.6.155-3.962.155-1.709,0-3.379-.077-4.466-.155-.544-.039-.893-.272-.893-.815a39.9,39.9,0,0,0,.622-5.011c0-1.048-.466-1.475-1.282-1.475-1.321,0-2.369.5-2.369,2.291,0,1.864.272,3.3.272,4.35,0,.388-.155.621-.738.66-1.087.078-2.6.117-4.234.117-1.2,0-2.291,0-3.417-.039M152.962,36.6c.349-.078.7-.234,1.049-.35a.927.927,0,0,0,.583-.971,15.962,15.962,0,0,0-1.01-4.972c-.117-.272-.234-.388-.389-.388-.194,0-.349.116-.5.388a12.7,12.7,0,0,0-1.553,6.214c0,.35.155.427.349.427a6.345,6.345,0,0,0,1.476-.349" transform="translate(49.296 381.125)" fill="#fff" />
        <path id="패스_24" data-name="패스 24" d="M172.177,36.978c0-8.584,4.35-17.128,12.661-17.128,6.253,0,9.128,4.117,9.128,8.234a4.5,4.5,0,0,1-.972,3.029c-1.437,1.9-5.2,4.7-6.991,4.7-.465,0-.621-.35-.621-.971,0-.7.077-1.709.077-2.641,0-1.9-.349-3.573-1.4-3.573-1.127,0-1.671,1.748-1.671,5.748,0,4.972,1.321,5.787,3.224,5.787,2.252,0,4.078-1.553,5.9-3.379a.873.873,0,0,1,.66-.31c1.01,0,1.9,2.369,1.9,5.321,0,4.583-3.262,8.933-9.943,8.933-7.534,0-11.962-4.544-11.962-13.749" transform="translate(44.638 381.098)" fill="#fff" />
        <path id="패스_25" data-name="패스 25" d="M209.12,18.313a.762.762,0,0,1,.622.815c0,.816-1.476,3.612-1.476,6.176,0,.621.233.893.66.893.7,0,2.369-1.748,5.321-1.748,3.689,0,6.059,2.524,6.059,10.836a88.569,88.569,0,0,1-1.01,13.632,1.048,1.048,0,0,1-1.01,1.01c-.583,0-1.671.039-2.913.039-1.437,0-3.029-.039-4.195-.116-.427-.039-.933-.155-.933-.972,0-.932.933-6.8.933-11.418,0-3.767-.35-4.389-1.2-4.389-1.088,0-1.553,1.165-1.553,4.933,0,6.914.311,9.9.311,10.914,0,.815-.622.932-1.088.972-.893.077-2.136.116-3.456.116-1.282,0-2.6-.039-3.69-.116a.9.9,0,0,1-.893-.739,57.7,57.7,0,0,1-.388-8.272,158.327,158.327,0,0,1,1.4-21.362,1.316,1.316,0,0,1,.971-1.2c1.2-.116,2.641-.155,4.039-.155a24.062,24.062,0,0,1,3.5.155" transform="translate(40.562 381.353)" fill="#fff" />
        <path id="패스_26" data-name="패스 26" d="M226.512,50.117c-.816-.039-1.243-.194-1.321-.893-.155-1.553-.233-3.224-.233-4.933-.039-9.516,2.485-20.507,11.03-24.353a2.868,2.868,0,0,1,.971-.272,1.674,1.674,0,0,1,.854.272c7.651,4.078,10.758,13.322,10.758,24.042,0,1.515-.077,3.107-.194,4.7a1.312,1.312,0,0,1-1.4,1.359c-1.2.117-2.6.155-3.962.155-1.709,0-3.379-.077-4.466-.155-.544-.039-.893-.272-.893-.815a39.9,39.9,0,0,0,.622-5.011c0-1.048-.466-1.475-1.282-1.475-1.321,0-2.369.5-2.369,2.291,0,1.864.272,3.3.272,4.35,0,.388-.155.621-.738.66-1.087.078-2.6.117-4.234.117-1.2,0-2.291,0-3.417-.039M236.649,36.6c.349-.078.7-.234,1.049-.35a.927.927,0,0,0,.583-.971,15.962,15.962,0,0,0-1.01-4.972c-.117-.272-.234-.388-.389-.388-.194,0-.349.116-.5.388a12.7,12.7,0,0,0-1.553,6.214c0,.35.155.427.349.427a6.345,6.345,0,0,0,1.476-.349" transform="translate(36.681 381.125)" fill="#fff" />
    </g>
    <path id="패스_356" data-name="패스 356" d="M269.066,14.67S233.48,369.4,230.365,401.729l-.078.746s174.268,20.41,174.592,18.294l.7-6.662s93.37-4.346,166.235-11c2.461-.226,3.014-3.644.862-4.851-21.367-11.992-86.64-68.359-107.354-82.175,0,0,72.009-62.271,105.273-92.913a2.619,2.619,0,0,0-2.051-4.524L438.075,231.713S514.918,118.681,545.09,70.905c1.385-2.194-1.308-4.75-3.585-3.5L373.052,165.239S373.445,48.069,370.7,2.547a2.614,2.614,0,0,0-4.875-1.231" transform="matrix(0.995, -0.105, 0.105, 0.995, -229.025, 436.864)" fill="#fff" />
</svg>
  