<svg id="레이어_1" data-name="레이어 1" xmlns="http://www.w3.org/2000/svg" viewBox="0 0 1255.06 1240.4"><defs><style>.cls-1{fill:#2cff81;}</style></defs><path class="cls-1" d="M428.89,853.55,18.55,690.43a10.06,10.06,0,0,1,.34-18.82L413.05,531,232.82,127.4c-4.23-9.46,6.89-18.35,15.19-12.16l337.76,252L720.16,23.7c3.74-9.55,17.69-8,19.3,2.08l57,357.78,299.36-252c8.46-7.13,20.55,2.65,15.35,12.42L938,469.08l257.58-42.44c9.77-1.61,15.74,10.39,8.56,17.21l-221.9,211L1262,804.24a10.05,10.05,0,0,1-2.58,18.69L923.26,896.71l-47.19,322a10.05,10.05,0,0,1-17.15,5.56L643.08,1002.88,327.16,1255.45c-7.7,6.17-18.75-1.3-15.91-10.75Z" transform="translate(-12.21 -17.3)"/></svg>