<svg xmlns="http://www.w3.org/2000/svg" width="150.534" height="151.89" viewBox="0 0 150.534 151.89">
    <path id="패스_314" data-name="패스 314" d="M26.9,5.739c1.793,7.562,6.716,22.329,12.358,40.924,0,0-24.655,6.895-38.8,10.343A.544.544,0,0,0,.3,58.027c5.563,2.8,22.931,12.1,38.318,20.449,0,0-9.172,22.217-15.618,37.582a.542.542,0,0,0,.786.688c4.72-3.161,19.071-12.754,34.258-22.729,0,0,9.386,12.319,16.951,20.533a.544.544,0,0,0,.934-.295l8.232-28.327s19.375-.9,34.494-2.282a.54.54,0,0,0,.179-1.007c-4.434-2.488-17.978-14.185-22.276-17.052,0,0,14.942-12.921,21.844-19.28a.543.543,0,0,0-.426-.939L90.9,48.081s15.945-23.454,22.206-33.368a.541.541,0,0,0-.744-.727L77.41,34.287S77.491,9.974,76.921.528A.542.542,0,0,0,75.91.273C73.062,5.2,63.21,24.72,58.684,33.241c0,0-19.741-15.226-30.838-27.944a.539.539,0,0,0-.946.442" transform="translate(0 111.927) rotate(-70)" fill="#8dffbb" />
</svg>
  