<svg xmlns="http://www.w3.org/2000/svg" width="141.214" height="16.711" viewBox="0 0 141.214 16.711">
    <path id="패스_352" data-name="패스 352" d="M92.063,18.5a10.928,10.928,0,0,1-6.32,10.288L84.687,27.6a9.471,9.471,0,0,0,4.768-4.432l-4.176.448-.256-1.424L90,21.824a9.992,9.992,0,0,0,.352-2H85.743V18.5Zm3.856-1.488v5.568h2.208v1.36H95.919v7.328H94.271V17.008Zm9.988,1.488a10.928,10.928,0,0,1-6.32,10.288L98.531,27.6a9.469,9.469,0,0,0,4.768-4.432l-4.176.448-.256-1.424,4.976-.368a10.014,10.014,0,0,0,.352-2H99.587V18.5Zm3.856-1.488v5.568h2.208v1.36h-2.208v7.328h-1.648V17.008ZM125.415,29.44h-12.88V28.128h5.6V25.7a5.38,5.38,0,0,1-3.152-1.232,3.427,3.427,0,0,1-1.168-2.656,3.387,3.387,0,0,1,1.408-2.832,7.013,7.013,0,0,1,7.5,0,3.548,3.548,0,0,1,.24,5.488,5.445,5.445,0,0,1-3.2,1.248v2.416h5.648ZM122.5,21.824a2.226,2.226,0,0,0-.976-1.872,4.883,4.883,0,0,0-5.1,0,2.236,2.236,0,0,0-.96,1.872,2.18,2.18,0,0,0,.96,1.84,5.077,5.077,0,0,0,5.1,0A2.171,2.171,0,0,0,122.5,21.824Zm19.711,3.936h-4.4v2.384h5.648v1.312h-12.88V28.144h5.6V25.76H132.23V21.152h7.936v-1.84h-7.984V18H141.8v4.48h-7.92v1.952h8.336ZM157.3,29.184h-12.88V27.856H157.3Zm-1.68-10.64a43.416,43.416,0,0,1-.624,8.32l-1.616-.208a20.238,20.238,0,0,0,.416-3.024q.177-2,.176-3.792h-8.064v-1.3ZM170,27.344h-1.632V17.008H170Zm.336,3.5h-9.76v-4.48h1.632v3.168h8.128Zm-5.36-11.808A3.315,3.315,0,0,1,166,21.552a3.315,3.315,0,0,1-1.024,2.512,3.614,3.614,0,0,1-2.624.976,3.692,3.692,0,0,1-2.656-.976,3.3,3.3,0,0,1-1.024-2.5,3.315,3.315,0,0,1,1.024-2.512,3.658,3.658,0,0,1,2.656-.992A3.614,3.614,0,0,1,164.973,19.04Zm-.608,2.512a2.18,2.18,0,0,0-.544-1.536,1.9,1.9,0,0,0-1.472-.592,1.939,1.939,0,0,0-1.472.608,2.321,2.321,0,0,0,0,3.024,1.965,1.965,0,0,0,1.472.592,1.882,1.882,0,0,0,1.456-.592A2.138,2.138,0,0,0,164.365,21.552Z" transform="translate(-29.119 -16.112)" fill="#333" />
    <path id="패스_353" data-name="패스 353" d="M38.5,16.112c-5.106,0-9.381,3.243-9.381,7.27,0,3.02,1.425,4.362,3.444,5.592v3.691c0,.112.237.224.356.112l3.681-2.46a5.881,5.881,0,0,0,1.9.224c5.225,0,9.381-3.243,9.381-7.27C47.881,19.355,43.725,16.112,38.5,16.112Z" transform="translate(-29.119 -16.112)" fill="#3e3a39" />
</svg>
  